. 
 
http://www.torrenting.com          :     Once & For all ;)


               www . Torrenting . Com 

(((((((((((((= Enjoy No RAR releases =))))))))))))))))))))


...................................NFO:....................................

.[align=center]
[IMG]http://i1127.photobucket.com/albums/l621/PR3D_PICs/cover-26.jpg[/IMG]

[url=http://www.imdb.com/title/tt0115495/]IMDb Link[/url]

[IMG]http://i1127.photobucket.com/albums/l621/PR3D_PICs/INFO.png[/IMG]

General
Format                         : Matroska
Format version                 : Version 2
File size                      : 347 MiB
Duration                       : 1h 32mn
Overall bit rate               : 522 Kbps
Movie name                     : Avidemux
Writing application            : Lavf52.108.0
Writing library                : Lavf52.108.0
AUTHOR                         : Avidemux

Video
ID                             : 1
Format                         : AVC
Format/Info                    : Advanced Video Codec
Format profile                 : High@L3.0
Format settings, CABAC         : Yes
Format settings, ReFrames      : 4 frames
Codec ID                       : V_MPEG4/ISO/AVC
Duration                       : 1h 32mn
Bit rate                       : 320 Kbps
Width                          : 720 pixels
Height                         : 306 pixels
Display aspect ratio           : 2.35:1
Frame rate mode                : Variable
Frame rate                     : 25.000 fps
Color space                    : YUV
Chroma subsampling             : 4:2:0
Bit depth                      : 8 bits
Scan type                      : Progressive
Bits/(Pixel*Frame)             : 0.058
Stream size                    : 213 MiB (61%)
Language                       : English

Audio
ID                             : 2
Format                         : AC-3
Format/Info                    : Audio Coding 3
Mode extension                 : CM (complete main)
Codec ID                       : A_AC3
Duration                       : 1h 32mn
Bit rate mode                  : Constant
Bit rate                       : 192 Kbps
Channel(s)                     : 2 channels
Channel positions              : Front: L R
Sampling rate                  : 48.0 KHz
Bit depth                      : 16 bits
Compression mode               : Lossy
Delay relative to video        : -40ms
Stream size                    : 128 MiB (37%)
Language                       : English



[IMG]http://i1127.photobucket.com/albums/l621/PR3D_PICs/SCREEN-1.png[/IMG]

[IMG]http://i1127.photobucket.com/albums/l621/PR3D_PICs/screens-68.jpg[/IMG]

[youtube]E6uW8_o2U-M[/youtube]

[IMG]http://i1127.photobucket.com/albums/l621/PR3D_PICs/predii2.gif[/IMG]

[IMG]http://i1127.photobucket.com/albums/l621/PR3D_PICs/ShMee-1.jpg[/IMG]

[IMG]http://i1127.photobucket.com/albums/l621/PR3D_PICs/NEWGRSIGv3-1.png[/IMG]

[IMG]http://i1127.photobucket.com/albums/l621/PR3D_PICs/GREET.png[/IMG]


[/align]